# xmcd CD database file
#
# Track frame offsets:
#	150
#	19237
#	32070
#	43317
#	59840
#	74242
#	87927
#	100752
#	116590
#	129380
#	140825
#	154200
#	163940
#	181017
#	191152
#	202287
#	211145
#	220297
#	233445
#	242097
#
# Disc length: 3398 seconds
#
# Revision: 4
# Processed by: cddbd v1.5.2PL0 Copyright (c) Steve Scherf et al.
# Submitted via: CDex 1.51
#
DISCID=380d4414
DTITLE=### - Mega Country (2/10)
DYEAR=1997
DGENRE=Country
TTITLE0=John Denver - Rocky Mountain High
TTITLE1=Lynn Anderson - Top of the world
TTITLE2=Conway Twitty - Hello darling
TTITLE3=Crystal Gayle - When I dream
TTITLE4=Eddie Rabbit - I love a rainy night
TTITLE5=Mel McDaniel - Baby's got her blue jeans on
TTITLE6=Billie Jo Spears - What I've got in mind
TTITLE7=Ed Bruce - (When you fall in love) everything's a waltz
TTITLE8=Johnny Tillotson - It keeps right on a hurtin'
TTITLE9=The Kendalls - Heaven's just a sin away
TTITLE10=Lee Greenwood - Hearts arent't made to break (They're made to be broken)
TTITLE11=Ned Miller - From a Jack to a King
TTITLE12=Nancy Peppers - Love don't come easy
TTITLE13=Rick Nelson - Never be anyone else but you
TTITLE14=Johnny Rodriguez - Pass me by
TTITLE15=Sandy Posey - Born a woman
TTITLE16=Pete Drake - Country pie
TTITLE17=Ray Stevens - Misty
TTITLE18=Roger Miller - England swinga
TTITLE19=Bill Anderson - Still
EXTD=YEAR: 1997
EXTT0=
EXTT1=
EXTT2=
EXTT3=
EXTT4=
EXTT5=
EXTT6=
EXTT7=
EXTT8=
EXTT9=
EXTT10=
EXTT11=
EXTT12=
EXTT13=
EXTT14=
EXTT15=
EXTT16=
EXTT17=
EXTT18=
EXTT19=
PLAYORDER=
